<svg id="Layer_1" data-name="Layer 1" xmlns="http://www.w3.org/2000/svg" viewBox="0 0 64 64"><title>Artboard 15</title><path d="M49.616,16.049a2.139,2.139,0,0,0-.6-1.849L43.455,8.635A7.663,7.663,0,0,0,38.009,6.1,8.3,8.3,0,0,0,32.4,8.635L8.928,32.1a9.04,9.04,0,0,0-2.786,6.055A7.472,7.472,0,0,0,8.59,43.5l5.565,5.566A2.062,2.062,0,0,0,16,49.661l7.949,7.95A1,1,0,1,0,25.366,56.2l-7.655-7.656,1.806-1.806,7.656,7.655a1,1,0,1,0,1.414-1.414l-7.656-7.655,1.806-1.806,7.656,7.656a1,1,0,0,0,1.414-1.414L24.151,42.1,25.956,40.3l7.656,7.656a1,1,0,0,0,1.414-1.414L27.37,38.882l1.806-1.806,7.656,7.656a1,1,0,0,0,1.414-1.414L30.59,35.662,32.4,33.856l7.656,7.656A1,1,0,0,0,41.466,40.1L33.81,32.442l1.806-1.806,7.656,7.656a1,1,0,0,0,1.414-1.414L37.03,29.222l1.806-1.806,7.656,7.656a1,1,0,0,0,1.414-1.414L40.249,26,42.056,24.2l7.656,7.657a1,1,0,1,0,1.414-1.414L43.47,22.782l1.805-1.805,7.656,7.656a1,1,0,1,0,1.414-1.414l-7.656-7.656L48.5,17.756l7.656,7.657A1,1,0,0,0,57.565,24ZM8.142,38.16a7.18,7.18,0,0,1,2.2-4.641L33.812,10.048a6.421,6.421,0,0,1,4.2-1.952,5.754,5.754,0,0,1,4.032,1.953l1.991,1.991L11.995,44.077,10,42.086A5.554,5.554,0,0,1,8.142,38.16Zm5.267,7.331L45.447,13.454l2.159,2.159a.163.163,0,0,1,0,.205L18.921,44.5a.406.406,0,0,0-.223.223l-2.927,2.927a.126.126,0,0,1-.2,0Z"/></svg>