<svg id="Layer_1" data-name="Layer 1" xmlns="http://www.w3.org/2000/svg" viewBox="0 0 64 64"><title>Artboard 9</title><path d="M60.1,27.2a2.768,2.768,0,0,1-1.979.93,2.835,2.835,0,0,1-1.318-.347h0c-6.957-5.27-12.844-7.941-17.5-7.941A8.573,8.573,0,0,0,32,23.279a8.575,8.575,0,0,0-7.3-3.438c-4.657,0-10.546,2.673-17.462,7.914a2.735,2.735,0,0,1-1.357.374A2.768,2.768,0,0,1,3.9,27.2a1,1,0,0,0-1.566,1.222,25.32,25.32,0,0,0,1.9,2.565.973.973,0,0,0,.13.154c3.766,4.5,12.785,13.019,27.142,13.019l.48,0,.507,0c14.48,0,23.531-8.662,27.24-13.134a.984.984,0,0,0,.127-.153,24.916,24.916,0,0,0,1.808-2.452A1,1,0,0,0,60.1,27.2ZM8.4,29.378c6.6-5,12.084-7.537,16.295-7.537,4.955,0,6.3,3.657,6.357,3.807a1,1,0,0,0,.942.676H32a1,1,0,0,0,.944-.67c.055-.156,1.4-3.812,6.359-3.812,4.211,0,9.693,2.536,16.335,7.566a4.334,4.334,0,0,0,.962.461c-24.458,5.139-43.493,1.49-49.389.057A4.546,4.546,0,0,0,8.4,29.378ZM31.986,42.156l-.48,0A32.914,32.914,0,0,1,8,32.158a108.963,108.963,0,0,0,23.227,2.365A125.688,125.688,0,0,0,56.168,32,32.959,32.959,0,0,1,32.494,42.159Z"/></svg>