<svg id="Layer_1" data-name="Layer 1" xmlns="http://www.w3.org/2000/svg" viewBox="0 0 64 64"><title>Artboard 12</title><path d="M53.09,30.048A8.023,8.023,0,0,0,44.7,33.361L39.1,32.089a5.886,5.886,0,0,0-1.319-1.742h.078c.011-.595.26-14.625.121-18.77-.157-4.743-5.694-7.231-5.93-7.335a1,1,0,0,0-1.4.908l-.156,23.8c-.18.07-.36.137-.529.221L5.906,23.7a.987.987,0,0,0-.915.254,1,1,0,0,0-.29.9c.048.253,1.206,6.211,5.787,7.448,3.6.972,15.066,3.465,17.751,4.046.032.043.059.087.093.129a6.736,6.736,0,0,0,2.981,2.093l-.038,5.8a8,8,0,0,0,2.806,15.468h.051a8,8,0,0,0,2.955-15.429l.042-6.214a5.506,5.506,0,0,0,.662-.447l5.616,1.277a8.015,8.015,0,0,0,7.924,6.822,8,8,0,0,0,1.759-15.8ZM32.639,6.863c1.37.9,3.27,2.554,3.345,4.781.113,3.4-.045,13.924-.1,17.478a7.41,7.41,0,0,0-2.98-.628c-.138,0-.269.021-.4.029ZM11.01,30.369c-2.151-.58-3.323-2.806-3.892-4.348L28.033,30.78a4.387,4.387,0,0,0-.78,3.306C23.211,33.206,14.072,31.2,11.01,30.369ZM29.9,35.235a2.847,2.847,0,0,1-.645-2.407c.312-1.373,1.811-2.333,3.646-2.333a5.521,5.521,0,0,1,1.212.138c2.284.52,3.822,2.352,3.43,4.082-.313,1.373-1.812,2.333-3.646,2.333a5.463,5.463,0,0,1-1.212-.139A4.915,4.915,0,0,1,29.9,35.235Zm5.9,10.849a6,6,0,1,1-3.268-.022,1,1,0,0,0,.734-.957l.04-6.091c.2.016.39.033.585.033a6.9,6.9,0,0,0,1.228-.121l-.042,6.19A1,1,0,0,0,35.8,46.083Zm21.361-6.9a6,6,0,0,1-11.837-1.019,1,1,0,0,0-.777-.923l-5.357-1.219a4.151,4.151,0,0,0,.4-1.768l5.358,1.219a1,1,0,0,0,1.1-.5A6,6,0,0,1,57.165,39.18Z"/><path d="M32.187,49.074a3.145,3.145,0,1,0,1.672-.483A3.126,3.126,0,0,0,32.187,49.074Zm2.643,2.052a1.145,1.145,0,0,1-.358,1.581,1.173,1.173,0,0,1-1.581-.359,1.146,1.146,0,0,1,1.939-1.222Z"/><path d="M51.089,34.353a3.147,3.147,0,1,0,2.665,1.472A3.141,3.141,0,0,0,51.089,34.353Zm.613,4.116a1.168,1.168,0,0,1-1.581-.36,1.146,1.146,0,1,1,1.581.36Z"/><circle cx="33.375" cy="33.785" r="1.188" transform="translate(-12.864 22.955) rotate(-32.167)"/></svg>