<svg id="Layer_1" data-name="Layer 1" xmlns="http://www.w3.org/2000/svg" viewBox="0 0 64 64"><title>Artboard 6</title><path d="M32,3.9c-12.246,0-21.839,4.861-21.839,11.067v5.741c0,4.534,5.131,8.34,12.664,10.068C15.292,32.5,10.161,36.307,10.161,40.841v8.194C10.161,55.241,19.754,60.1,32,60.1s21.839-4.861,21.839-11.067V40.841c0-4.534-5.131-8.34-12.664-10.067,7.533-1.727,12.664-5.534,12.664-10.068V14.965C53.839,8.759,44.246,3.9,32,3.9ZM51.839,49.035C51.839,53.95,42.754,58.1,32,58.1S12.161,53.95,12.161,49.035V45.519c3.421,3.8,10.915,6.389,19.839,6.389s16.418-2.587,19.839-6.389Zm0-8.194c0,4.915-9.085,9.067-19.839,9.067s-19.839-4.152-19.839-9.067S21.246,31.774,32,31.774,51.839,35.926,51.839,40.841ZM32,29.774c-10.754,0-19.839-4.152-19.839-9.068S21.246,11.638,32,11.638s19.839,4.152,19.839,9.067S42.754,29.774,32,29.774ZM51.839,16.028C48.418,12.226,40.923,9.638,32,9.638s-16.418,2.587-19.839,6.389V14.965C12.161,10.05,21.246,5.9,32,5.9s19.839,4.152,19.839,9.067Z"/><path d="M32,47.888c7.579,0,13.516-3.1,13.516-7.047S39.579,33.794,32,33.794s-13.516,3.1-13.516,7.047S24.421,47.888,32,47.888Zm0-12.094c6.786,0,11.516,2.66,11.516,5.047S38.786,45.888,32,45.888s-11.516-2.66-11.516-5.047S25.214,35.794,32,35.794Z"/></svg>