<svg id="Layer_1" data-name="Layer 1" xmlns="http://www.w3.org/2000/svg" viewBox="0 0 64 64"><title>Artboard 1</title><path d="M21.585,57.467H42.416a2.228,2.228,0,0,0,2.226-2.226V43.8a2.228,2.228,0,0,0-2.226-2.226h-.5a2.152,2.152,0,0,0,.023-.226V24.607a2.228,2.228,0,0,0-2.226-2.225H38.5V9.489a2.732,2.732,0,0,0-.727-2.228,2.638,2.638,0,0,0-1.936-.727c-1.868,0-4.428,1.4-6.681,3.652-2.177,2.177-3.806,4.936-3.649,6.958h0v5.239H24.291a2.228,2.228,0,0,0-2.226,2.225V41.354a2.152,2.152,0,0,0,.023.226h-.5A2.228,2.228,0,0,0,19.359,43.8V55.241A2.228,2.228,0,0,0,21.585,57.467ZM30.568,11.6c2.107-2.106,4.207-3.066,5.267-3.066a.809.809,0,0,1,.521.142c.5.5-.223,3.086-2.924,5.789-2.107,2.107-4.207,3.066-5.267,3.066a.811.811,0,0,1-.522-.142C27.139,16.883,27.866,14.3,30.568,11.6ZM27.5,19.464a3.3,3.3,0,0,0,.664.066c1.868,0,4.428-1.4,6.681-3.652A17.335,17.335,0,0,0,36.5,13.963v8.418h-9Zm-3.437,21.89V24.607a.226.226,0,0,1,.226-.225H39.71a.226.226,0,0,1,.226.225V41.354a.226.226,0,0,1-.226.226H24.291A.226.226,0,0,1,24.065,41.354ZM21.359,43.8a.226.226,0,0,1,.226-.226H42.416a.226.226,0,0,1,.226.226V55.241a.226.226,0,0,1-.226.226H21.585a.226.226,0,0,1-.226-.226Z"/><path d="M37.9,28.5a1,1,0,0,0-1,1v7.375a1,1,0,1,0,2,0V29.5A1,1,0,0,0,37.9,28.5Z"/><path d="M40.4,53.5a1,1,0,0,0,1-1V46.938a1,1,0,0,0-2,0V52.5A1,1,0,0,0,40.4,53.5Z"/></svg>