<svg id="Layer_1" data-name="Layer 1" xmlns="http://www.w3.org/2000/svg" viewBox="0 0 64 64"><title>Artboard 2</title><path d="M19.756,59.583h4.505c4.371,0,5.929-3.063,5.929-5.929V35.033a2.05,2.05,0,0,0-.307-1.071,2.051,2.051,0,0,0,.307-1.071V14.271c0-2.866-1.558-5.929-5.929-5.929H19.756c-2.866,0-5.928,1.558-5.928,5.929V32.892a2.05,2.05,0,0,0,.307,1.071,2.049,2.049,0,0,0-.307,1.071V53.654C13.828,58.026,16.89,59.583,19.756,59.583Zm8.434-24.55v2.345h-12.3l.009-2.416Zm-3.929,22.55H19.756c-1.467,0-3.928-.51-3.928-3.929l.054-14.276H28.19V53.654C28.19,55.121,27.68,57.583,24.261,57.583ZM15.828,14.271c0-3.419,2.461-3.929,3.928-3.929h4.505c3.418,0,3.929,2.462,3.929,3.929V32.892a.071.071,0,0,1-.07.071l-12.292-.071Z"/><path d="M39.738,59.583h4.505c4.371,0,5.929-3.063,5.929-5.929V35.033a2.073,2.073,0,0,0-2.07-2.07H42.991v-12.9H45.6a1,1,0,0,0,0-2H42.991V16.921H45.6a1,1,0,0,0,0-2H42.991V13.776H45.6a1,1,0,0,0,0-2H42.991V10.632H45.6a1,1,0,0,0,0-2H42.991V7.487H45.6a1,1,0,0,0,0-2H42.991v-.07a1,1,0,1,0-2,0v.07H38.378a1,1,0,0,0,0,2h2.613V8.632H38.378a1,1,0,0,0,0,2h2.613v1.144H38.378a1,1,0,0,0,0,2h2.613v1.145H38.378a1,1,0,0,0,0,2h2.613v1.145H38.378a1,1,0,0,0,0,2h2.613v12.9H35.88a2.073,2.073,0,0,0-2.07,2.07V53.654C33.81,58.026,36.873,59.583,39.738,59.583Zm4.505-2H39.738c-1.467,0-3.928-.51-3.928-3.929l.054-14.276H48.172V53.654C48.172,55.121,47.662,57.583,44.244,57.583Zm3.929-22.55v2.345h-12.3l.009-2.416Z"/></svg>