<svg id="Layer_1" data-name="Layer 1" xmlns="http://www.w3.org/2000/svg" viewBox="0 0 64 64"><title>Artboard 16</title><path d="M47.493,18.98H45C44.405,10.4,38.8,3.651,31.993,3.651s-12.412,6.751-13,15.329H16.507a1,1,0,0,0-1,1v3c0,9.481,6.865,17.239,15.493,17.8V55.336H23.809a1.929,1.929,0,0,0-1.927,1.927v1.158a1.93,1.93,0,0,0,1.927,1.928H40.152a1.93,1.93,0,0,0,1.927-1.928V57.263a1.929,1.929,0,0,0-1.927-1.927H33V40.783c8.627-.564,15.492-8.322,15.492-17.8v-3A1,1,0,0,0,47.493,18.98ZM40.079,58.349h-16.2V57.336h16.2Zm-8.086-52.7c6.1,0,11.064,6.653,11.064,14.831S38.093,35.313,31.993,35.313,20.929,28.66,20.929,20.482,25.892,5.651,31.993,5.651Zm14.5,17.328c0,8.744-6.5,15.858-14.492,15.858S17.507,31.723,17.507,22.979v-2h1.441c.207,9.049,5.971,16.333,13.044,16.333S44.831,30.029,45.037,20.98h1.455Z"/><path d="M28.792,21.829a1,1,0,0,0,.779-.372l5.795-7.185a1,1,0,1,0-1.557-1.256L28.015,20.2a1,1,0,0,0,.777,1.628Z"/><path d="M28.792,29.015a1,1,0,0,0,.779-.372l5.795-7.187A1,1,0,1,0,33.81,20.2l-5.795,7.186a1,1,0,0,0,.777,1.628Z"/></svg>