<svg id="Layer_1" data-name="Layer 1" xmlns="http://www.w3.org/2000/svg" viewBox="0 0 64 64"><title>Artboard 13</title><path d="M54.309,9.136A1,1,0,0,0,53.4,9l-8.764,3L20.8,8.958,20.67,8.95a11.4,11.4,0,0,0-4.464,21.881l1.2,18.954c.19,2.986,3.135,5.266,6.678,5.266.174,0,.349-.006.525-.017a7.617,7.617,0,0,0,4.655-1.894,5.234,5.234,0,0,0,1.825-4.225L29.959,31.037l14.66-1.12,8.793,2.929a.977.977,0,0,0,.316.052,1,1,0,0,0,1-1V9.95A1,1,0,0,0,54.309,9.136ZM11.273,20.346a9.407,9.407,0,0,1,9.335-9.4L43.744,13.9V27.977L20.633,29.744A9.408,9.408,0,0,1,11.273,20.346ZM29.1,49.043a3.274,3.274,0,0,1-1.177,2.619,5.613,5.613,0,0,1-3.434,1.376c-2.692.173-4.952-1.348-5.081-3.38L18.251,31.48a11.38,11.38,0,0,0,2.419.264h.038l7.256-.555ZM52.728,30.509l-6.984-2.326V13.735l6.984-2.387Z"/><path d="M29.812,20.346a8.307,8.307,0,1,0-8.307,8.308A8.316,8.316,0,0,0,29.812,20.346Zm-14.613,0a6.307,6.307,0,1,1,6.307,6.308A6.314,6.314,0,0,1,15.2,20.346Z"/><path d="M24.127,50.532a2.862,2.862,0,1,0-2.862-2.862A2.866,2.866,0,0,0,24.127,50.532Zm0-3.725a.862.862,0,1,1-.862.862A.863.863,0,0,1,24.127,46.807Z"/></svg>