<svg id="Layer_1" data-name="Layer 1" xmlns="http://www.w3.org/2000/svg" viewBox="0 0 64 64"><title>Artboard 7</title><path d="M17.741,52.719a2.624,2.624,0,0,0,3.711,0l4.066-4.066h0L48.973,25.2a2.643,2.643,0,0,0,.349-.437.987.987,0,0,0,.516-.6l3.609-12.366a1,1,0,0,0-1.257-1.235L40.005,14.346a.922.922,0,0,0-.1.053,2.51,2.51,0,0,0-1.106.628L11.282,42.549a2.622,2.622,0,0,0,0,3.711ZM47.559,23.783,24.811,46.531l-2.964-2.964,23.189-23.19L47.559,22.9a.621.621,0,0,1,0,.882Zm1.075-2.636-2.89-2.89h0L43,15.51l8.009-2.49Zm-8.416-4.706a.625.625,0,0,1,.883,0l2.522,2.523L20.433,42.154,17.469,39.19ZM12.7,43.963l3.36-3.36,3.67,3.67h0l3.67,3.67L20.037,51.3a.639.639,0,0,1-.883,0L12.7,44.845a.621.621,0,0,1,0-.882Z"/></svg>