<svg id="Layer_1" data-name="Layer 1" xmlns="http://www.w3.org/2000/svg" viewBox="0 0 64 64"><title>Artboard 10</title><path d="M13.675,49.2c-1.97,4.5.132,7.327,2.757,8.478l4.126,1.809a6.392,6.392,0,0,0,2.556.578c3.31,0,4.982-3.007,5.547-4.3l1.523-3.477h0l7.055-16.1a2.388,2.388,0,0,0,.176-.667c.022-.014.048-.02.069-.036.55-.418,13.475-10.314,13.612-17.86.14-7.7-8.805-12.186-9.267-12.408A21.93,21.93,0,0,0,34.69,3.935,11.391,11.391,0,0,0,26.509,6.85c-5.456,5.217-3.97,21.427-3.9,22.114,0,.03.015.058.02.087a2.265,2.265,0,0,0-.371.569ZM26.83,54.964c-.408.932-1.586,3.1-3.715,3.1a4.414,4.414,0,0,1-1.753-.41l-4.126-1.809c-1.344-.589-3.354-2.132-1.728-5.844l1.122-2.562L27.953,52.4Zm8.579-19.579L28.755,50.57,17.432,45.609l6.653-15.186a.4.4,0,0,1,.157-.182l.054.024L35.421,35.14A.286.286,0,0,1,35.409,35.385ZM27.891,8.3a8.069,8.069,0,0,1,3.25-1.86l-.758,9.547a1,1,0,0,0,.918,1.076l.08,0a1,1,0,0,0,1-.921l.786-9.891a.958.958,0,0,0-.027-.222,13.8,13.8,0,0,1,1.555-.094,17.344,17.344,0,0,1,2.187.146l-1.324,5.162a1,1,0,1,0,1.937.5l1.362-5.309a19.76,19.76,0,0,1,2.177.616h0c.028.014.584.3,1.387.811l-3.945,6.678a1,1,0,1,0,1.722,1.017L44.052,9.02a15.5,15.5,0,0,1,3.72,4.023l-8.178,8.709a1,1,0,0,0,1.458,1.369L48.681,15a7.729,7.729,0,0,1,.417,2.59c-.1,5.238-8.55,12.956-12.359,15.946l-.5-.217,0,0-11.194-4.9h0l-.5-.219C24.162,23.363,24.1,11.916,27.891,8.3Z"/></svg>