<svg id="Layer_1" data-name="Layer 1" xmlns="http://www.w3.org/2000/svg" viewBox="0 0 64 64"><title>Artboard 5</title><path d="M33.712,38.748c3.858,0,8.168-2.006,11.528-5.366,5.7-5.7,7.057-13.617,3.026-17.648a8.422,8.422,0,0,0-6.121-2.341c-3.858,0-8.168,2.006-11.528,5.367a18.154,18.154,0,0,0-5.151,9.268c-.634,3.4.121,6.377,2.125,8.38A8.423,8.423,0,0,0,33.712,38.748Zm-6.28-10.355a16.15,16.15,0,0,1,4.6-8.22c2.994-2.994,6.775-4.781,10.114-4.781a6.472,6.472,0,0,1,4.707,1.755c3.251,3.252,1.894,9.9-3.026,14.82-2.994,2.993-6.774,4.78-10.114,4.78a6.473,6.473,0,0,1-4.706-1.755C27.482,33.469,26.923,31.126,27.433,28.393Z"/><path d="M13.358,54.9a4.245,4.245,0,0,0,3.011-1.245L27.947,42.072a13.282,13.282,0,0,0,5.089.964c5.105,0,10.715-2.562,15.006-6.853A22.991,22.991,0,0,0,54.69,23.754c.711-4.537-.41-8.546-3.154-11.29A12,12,0,0,0,42.822,9.1c-5.105,0-10.715,2.562-15.006,6.853a22.987,22.987,0,0,0-6.647,12.428,14.224,14.224,0,0,0,.75,7.673L10.347,47.63A4.256,4.256,0,0,0,13.358,54.9Zm9.786-26.2A20.984,20.984,0,0,1,29.23,17.371c3.924-3.924,9.005-6.267,13.592-6.267a10.043,10.043,0,0,1,7.3,2.774c2.281,2.28,3.2,5.678,2.592,9.567a20.983,20.983,0,0,1-6.086,11.324c-3.924,3.924-9.005,6.267-13.592,6.267a10.041,10.041,0,0,1-7.3-2.773C23.456,35.981,22.535,32.584,23.144,28.694ZM11.761,49.044,22.908,37.9A10.422,10.422,0,0,0,26.086,41.1L14.955,52.237a2.258,2.258,0,0,1-3.194-3.193Z"/><path d="M36.918,23.444l8.242.229h.028a1,1,0,0,0,.027-2l-8.242-.229h-.028a1,1,0,0,0-.027,2Z"/><path d="M32.619,27.744l8.242.229h.028a1,1,0,0,0,.027-2l-8.242-.229h-.028a1,1,0,0,0-.027,2Z"/></svg>