<svg id="Layer_1" data-name="Layer 1" xmlns="http://www.w3.org/2000/svg" viewBox="0 0 64 64"><title>Artboard 14</title><path d="M44.863,21.162V17.7a1,1,0,0,0-1-1H41V7.537a2,2,0,0,0-2-2H33.061a2,2,0,0,0-2,2V9.363h-3.3C26.327,6.852,23,5.088,19.136,5.088c-5.169,0-9.375,3.154-9.375,7.031s4.206,7.031,9.375,7.031c3.865,0,7.19-1.764,8.623-4.274h3.3V16.7H28.2a1,1,0,0,0-1,1v3.467a18.174,18.174,0,0,0-.7,31.4v5.344a1,1,0,0,0,1,1H44.561a1,1,0,0,0,1-1V52.567a18.181,18.181,0,0,0-.7-31.405Zm7.34,14.9c-2.058-.542-6.333-1-15.174-1.03V24.287h6.833a.986.986,0,0,0,.963-.816A16.2,16.2,0,0,1,52.2,36.063ZM35.03,38.034c-5.026-.025-9.07-.236-11.768-.5,2.7-.264,6.742-.474,11.768-.5Zm2-1c4.989.027,9,.237,11.689.5-2.684.263-6.7.473-11.689.5ZM19.136,17.151c-4.066,0-7.375-2.257-7.375-5.031s3.309-5.031,7.375-5.031,7.375,2.257,7.375,5.031S23.2,17.151,19.136,17.151Zm9.319-4.274a5.1,5.1,0,0,0,0-1.514h2.606v1.514Zm4.606,1V7.537H39V16.7H33.061ZM29.2,18.7H42.863v3.583H29.2Zm-1.962,4.772a.986.986,0,0,0,.962.811H35.03V35.033c-8.784.031-13.079.475-15.172,1.01A16.125,16.125,0,0,1,27.235,23.476ZM43.561,56.912H28.5V53.64a18.008,18.008,0,0,0,15.062,0ZM36.03,53.291A16.223,16.223,0,0,1,19.954,39.049c2.127.524,6.423.957,15.076.987v7.919a1,1,0,0,0,2,0V40.036c8.713-.033,12.988-.475,15.08-1.007A16.224,16.224,0,0,1,36.03,53.291Z"/></svg>