<svg id="Layer_1" data-name="Layer 1" xmlns="http://www.w3.org/2000/svg" viewBox="0 0 64 64"><title>Artboard 8</title><path d="M48.373,12.169a1,1,0,0,0,0-2h-5.9A5.734,5.734,0,0,0,39.9,5.563a5.894,5.894,0,0,0-3.057-.832H27.159c-2.541,0-5.238,1.457-5.635,5.439h-5.9a1,1,0,0,0,0,2h5.841v2.022H15.627a1,1,0,0,0,0,2h5.841v2.023H15.627a1,1,0,0,0,0,2h5.841v2.022H15.627a1,1,0,0,0,0,2h5.841V26.26H15.627a1,1,0,0,0,0,2h5.841v2.022H15.627a1,1,0,0,0,0,2h5.907c.325,2.8,1.922,5.439,5.625,5.439h.387V54.815a4.455,4.455,0,1,0,8.91,0V37.721h.386c3.735,0,5.326-2.65,5.631-5.439h5.9a1,1,0,0,0,0-2H42.532V28.26h5.841a1,1,0,0,0,0-2H42.532V24.237h5.841a1,1,0,0,0,0-2H42.532V20.214h5.841a1,1,0,0,0,0-2H42.532V16.191h5.841a1,1,0,0,0,0-2H42.532V12.169Zm-24.9,18.993V11.2c0-3.89,2.312-4.471,3.69-4.471H31V35.721H27.159C23.828,35.721,23.468,32.533,23.468,31.162ZM34.456,54.814a2.455,2.455,0,1,1-4.91,0V37.721h4.91Zm2.386-19.093H33V6.73h3.841a3.872,3.872,0,0,1,2.008.535c1.116.688,1.683,2.012,1.683,3.936V31.25C40.532,32.919,40.052,35.721,36.841,35.721Z"/></svg>