<?xml version="1.0" encoding="UTF-8"?>
<svg id="Layer_1" data-name="Layer 1" xmlns="http://www.w3.org/2000/svg" viewBox="0 0 45.7 73">
  <defs>
    <style>
      .cls-1 {
        fill: #1d1d1b;
      }

      .cls-1, .cls-2 {
        stroke-width: 0px;
      }

      .cls-2 {
        fill: #fff;
      }
    </style>
  </defs>
  <g>
    <g>
      <path class="cls-1" d="M35.26,59.64c.03-.4.03-.79,0-1.17-.05-.77-.19-1.49-.41-2.18-.79-2.4-2.61-4.12-4.83-4.27-.3-.02-.59-.01-.88.02-1.76.23-3.98-.47-4.46-3.15,0-.03-.01-.06-.01-.11,0-.04-.02-.08-.02-.13-.01-.17-.03-.42-.06-.74,0-.06,0-.12-.01-.18-.05-.62-.11-1.48-.17-2.53-.01-.11-.02-.22-.02-.32-.15-2.37-.34-5.61-.54-9.28-.02-.27-.03-.55-.05-.83-.13-2.43-.28-5.03-.42-7.66-.01-.18-.02-.37-.03-.56-.05-.82-.09-1.65-.14-2.49-.03-.55-.06-1.1-.09-1.65-.02-.28-.03-.56-.04-.84-.01-.18-.02-.37-.03-.55-.09-1.72-.18-3.42-.27-5.05,0-.17-.02-.34-.03-.52-.03-.68-.07-1.36-.11-2.02-.01-.28-.03-.56-.04-.83,0-.06,0-.11,0-.16,0-.16-.01-.32-.02-.48-.01-.27-.03-.54-.04-.81-.03-.48-.05-.94-.07-1.39,0-.04,0-.08,0-.12,0-.15-.02-.3-.02-.45-.01-.26-.02-.51-.04-.76-.01-.14-.02-.29-.02-.43-.02-.31-.04-.62-.05-.92-.02-.37-.03-.74-.06-1.08-.01-.26-.03-.5-.04-.74-.02-.48-.05-.94-.07-1.36,0-.12-.01-.24-.02-.36,0-.19-.02-.37-.02-.55-.01-.2-.02-.39-.03-.57,0-.16-.01-.32-.02-.47,0-.08,0-.17-.01-.25-.02-.51-.04-.91-.06-1.21,0-.16-.01-.29-.02-.38,0-.02,0-.04,0-.06l-.96,42.59c0,.35.13.68.37.93l1.64,1.68.58,10.43.22,3.93c0,.18,0,.36.02.53,0,.14.02.28.04.42,0,.05,0,.1.02.14.01.1.03.2.04.3.02.12.04.23.07.35.03.14.06.28.1.42.37,1.4,1.08,2.6,2.02,3.44.09.08.19.16.29.24.05.05.11.09.17.13.08.05.15.11.23.16.68.43,1.43.7,2.25.76.54.03,1.07-.02,1.58-.17.13-.04.25-.08.38-.12.37-.14.74-.32,1.08-.55.23-.15.44-.32.65-.51.22-.19.42-.39.6-.61.19-.22.37-.45.53-.69.78-1.15,1.29-2.61,1.4-4.21ZM33.57,59.44c-.02.39-.08.78-.16,1.15-.05.24-.12.48-.2.71-.07.22-.15.43-.25.64,0,.01,0,.03-.02.03-.52,1.16-1.32,2.05-2.25,2.51-.17.08-.34.15-.52.2-.18.06-.36.09-.55.12-.19.02-.37.02-.56.01-2.27-.15-3.95-2.82-3.74-5.94.02-.39.08-.78.16-1.15.05-.22.11-.44.18-.65l.04-.11c.07-.21.15-.41.23-.6l.02-.03c.34-.76.81-1.39,1.36-1.87.28-.25.58-.47.9-.63.51-.25,1.06-.37,1.63-.33,2.28.15,3.95,2.81,3.74,5.94Z"/>
      <path class="cls-1" d="M24.69,58.84c-.25,3.61,1.69,6.69,4.32,6.86,2.63.18,4.96-2.6,5.21-6.22.24-3.61-1.69-6.68-4.33-6.86-2.63-.18-4.96,2.61-5.2,6.22ZM29.83,53.5c2.27.15,3.95,2.81,3.74,5.94-.21,3.12-2.22,5.54-4.5,5.38-2.27-.15-3.95-2.82-3.74-5.94.21-3.13,2.23-5.54,4.5-5.38Z"/>
      <path class="cls-1" d="M22.99,45.23L21.95.04v-.04s-.97,42.63-.97,42.63c0,.35.12.68.37.93l1.64,1.68Z"/>
      <path class="cls-1" d="M28.13,66.34s.82,1.07.82,2.6c0,2.55-1.18,3.74-.91,4.02.22.22.95-.39,1.6-2.19.56-1.52.45-4.33.45-4.33l-1.65-.73-.32.62Z"/>
    </g>
    <g>
      <path class="cls-1" d="M45.7,7.5c-.86,1.14-28.47,37.68-29.71,38.94-1.9,1.94-4.13,1.28-5.46.1-.22-.19-.46-.36-.71-.51-2.74-1.6-6.6-.09-8.62,3.37-2.02,3.46-1.44,7.56,1.3,9.16,2.57,1.5,6.12.26,8.22-2.76h0c.23-.3.6-.48.98-.46h.25c.31.02.6-.11.78-.35l.04-.05c.15-.2.22-.44.19-.69l-.09-.72c-.04-.3.04-.61.23-.86l6.33-8.31,2.3-.47c.34-.07.64-.27.83-.56L45.7,7.5ZM9.86,54.34c-1.58,2.7-4.46,3.97-6.43,2.82-1.97-1.15-2.29-4.28-.71-6.98,1.58-2.7,4.46-3.97,6.43-2.82,1.97,1.15,2.29,4.28.71,6.98Z"/>
      <path class="cls-1" d="M9.59,46.59c-2.28-1.33-5.6.13-7.43,3.25-1.82,3.13-1.45,6.74.82,8.07,2.27,1.33,5.6-.13,7.42-3.25,1.83-3.12,1.46-6.74-.82-8.07ZM9.85,54.34c-1.58,2.7-4.46,3.97-6.43,2.82-1.97-1.15-2.28-4.28-.71-6.98,1.58-2.71,4.46-3.97,6.43-2.82,1.97,1.15,2.29,4.27.71,6.98Z"/>
    </g>
    <g>
      <path class="cls-1" d="M24.02,40.78c.1-.43-.16-.86-.59-.96s-.86.16-.96.59.16.86.59.96.86-.16.96-.59Z"/>
      <path class="cls-1" d="M23.76,40.72c.07-.29-.11-.57-.4-.64s-.57.11-.64.4.11.57.4.64.57-.11.64-.4Z"/>
    </g>
  </g>
  <circle class="cls-2" cx="22.67" cy="40.12" r=".81"/>
</svg>