<svg width="446" height="448" viewBox="0 0 446 448" fill="none" xmlns="http://www.w3.org/2000/svg"><mask id="a" style="mask-type:alpha" maskUnits="userSpaceOnUse" x="5" y="5" width="438" height="438"><path d="M437.44 224c0 117.879-95.561 213.44-213.44 213.44-117.879 0-213.44-95.561-213.44-213.44 0-117.879 95.561-213.44 213.44-213.44 117.879 0 213.44 95.561 213.44 213.44z" fill="#fff" stroke="#8AB4F8" stroke-width="11.121"/></mask><g mask="url(#a)"><path d="M531.483 9.928H-81.714v444.447h613.197V9.928z" fill="#7FCFFF"/><path d="M-86.531 193.995l17.86 16.967 5.655-4.241s-4.241-4.242 0-5.656c4.242-1.414 18.515-4.242 18.515-4.242l5.656-2.828h15.955l12.725-3.304h58.448l12.264 3.304 8.93 6.832 8.93 10.135 15.092 19.036 5.179-.729v-9.347l4.242 7.07-2.084 2.277-2.069.729-1.875 1.965-.923.64 7.025 14.883 11.148 25.302 1.354 4.822 5.82 13.395v3.899l1.354 1.846 2.843 15.985v6.117l-2.977 1.697v1.771l-2.307 2.202-.074 2.263-2.977 2.426h-1.92l-.774 1.562h-1.994v1.772l-2.129 1.562-.848.923v1.488l-1.205 1.28 2.202.864.209 2.128 1.637.774-.149 3.557h1.146v5.328h1.206l.357 3.334 1.339.923v1.92l1.786 1.205h10.582l.923-1.28 4.049.64.357.64 5.328.492 2.188 2.425v2.263l2.56 1.637 1.28-.997.64.997 2.069.432v1.488h3.691l.565 1.488h3.126l1.056 1.489h1.28l3.349 3.631h3.825v1.206h3.2l.64 1.488h2.769l1.488.997h1.28l.565-1.071h3.691l-.431-1.206-.7-1.28h-2.277l-.283-7.665h.774l.506 1.488 1.489-.208.848.774 2.768-.134v-1.771l-1.28-.506.149-2.977-1.28-1.071v-2.129l-1.488-.64 1.339-1.071.224-2.129 1.056-.431v-5.671l-1.488-.863.432-4.897 1.92 2.411.282 1.489 2.843 1.488 1.206-.491.997-1.488.432-1.489 1.696-2.262 3.84-1.488 6.385-.64 4.197-.358v1.638l-10.865 2.842-1.92.566-1.354.714-1.28.774-.565 1.489-2.278 1.637-1.696.714-1.355 2.203v4.108l.357 2.976 1.638.506 2.336 1.638 2.977-1.92h.774l1.712-1.489-.358-1.205-.431-4.465 1.354-.357.848 1.146.075.922.923.209v1.845l1.28.432.431-1.28 4.182.357-.074-1.28-3.185-2.709-.714-1.265.134-1.146 4.554.224.491-1.355h3.557l1.28-2.128 2.411 1.339.64 5.76h1.995l.699.982 3.2.432 1.146 1.637 4.048.432.417-2.203-.923-4.554-3.2-3.081-.416-1.488h4.048l2.054-.64 2.694-.998 1.488.566 3.408-.149h3.126l1.771.581 3.632.848.848 1.28h2.977l.491 1.414h2.56l.417.863h1.786v-.923l1.845-.699v-1.488l.715 3.482 2.545.075v-1.637l-.774-.075v-3.125l1.354.714 2.128 2.069 2.203.074v3.9l-.699 1.071v1.637l-1.786.417.074 1.354 3.274.715 1.265 1.205h2.709l1.057 1.34h8.097l.997-1.488h1.845l-.699 1.92-.789.922.432 2.203 7.248.566.982 11.906 3.557 5.329 4.123 1.488 2.694 4.182 14.66 16.327 6.177 4.763 13.856 10.865 8.662 4.331 17.057 5.745 4.896 2.56h4.049l9.733 8.93.923 4.256 9.153 4.465 4.123 3.2h155.889V3.503L-89.151.423l2.62 193.572z" fill="#333438" stroke="#333438" stroke-width="3.447" stroke-miterlimit="10"/><path d="M-80.29 146.229l18.583-11.782 12.295 3.309 8.688-3.309 16.496 8.24h7.198v3.542H6.65l2.994-3.542h15.588l4.5-12.687 6.289 2.606 15.886 1.841 15.289 1.421 2.712 6.819L78 157.528 68.701 204l-5.335-5.634-12.264-3.464h-58.52l-12.757 3.464h-16.034l-9.612-7.552-12.577 1.56-15.603 1.576-9.999-4.4 3.71-43.321z" fill="#98DCAB"/><path d="M5.07 61.326L-10.498 62.8l-20.658 16.475 1.503 2.71-25.45 10.477-3.587 21.864 19.155 1.488 9.138 17.205 15.747-7.873 10.15-12.919 9.57-32.952 6.594-9.272v-4.792L5.07 61.326zM-26.953.422L-.61 20.024v6.28h-5.15l-13.112 3.305.298 7.784 9.585 2.381 3.23-1.786v5.388h3.958l3.587 1.8 2.099 3.885v5.388l8.707 8.364 5.655-4.986-3.586-5.298 8.379-7.055V33.196l5.998-5.09h6.876l6.891 3.512 8.082-2.62 5.983 1.206 5.998 6.578 8.38.298V3.25L-26.954.422z" fill="#CEEAD6"/><path d="M84.126 1.267l2.098 7.68h-5.388v13.171h35.631l9.585 5.09 15.256 4.406 7.486 5.164v7.487l5.701 1.503h6.578l12.517-18.262 2.158-9.287 14.973-6.579 8.082.596 3.289 7.784 7.784-2.099h8.081l3.9-6.89 12.874-9.764H84.126z" fill="#98DCAB"/><path d="M225.8 42.241l-5.149 5.016v5.269l-5.388 5.298-5.388-2.173-5.388-9.882-4.792 2.098-5.983-2.098-6.594-3.528-10.18 3.528-6.281 9.585 2.932 4.48h2.456l2.099 5.09 7.784 1.8 5.685 2.397h14.363v10.165l13.484 1.206 2.396 11.98 26.939 3.9 9.049 5.686 11.014 10.477 14.08-1.905h34.127l7.487 4.302 20.628 5.685 13.797-1.205 12.279-4.48 14.973-1.206 34.425 4.495h17.964l13.172-5.686 11.118-3.586 19.125 2.991 3.305-1.31 26.939-3.185 14.079-6.891 18.56.596 21.253-.596 5.686-6.578 2.396-6.891-2.396-7.799L540.376.419 312.571-9.21l-64.669 5.88-4.197 10.805-15.27 9.242-2.635 25.525z" fill="#98DCAB"/><path d="M152.404 145.802l-2.322 14.765-2.679 2.262v20.435l-5.537 14.228v19.274h34.425M107.411 226.473l16.417-9.704h7.992l3.498 3.081h3.884l2.665-3.081" stroke="#797D7B" stroke-width="3.447" stroke-miterlimit="10"/><path d="M131.817 159.756v31.181l3.498 2.247 1.637 71.991" stroke="#797D7B" stroke-width="3.447" stroke-miterlimit="10"/><path d="M31.95 52.526v62.465" stroke="#DADCE0" stroke-width="3.707" stroke-miterlimit="10"/><path d="M24.467 85.951h94.034M73.614 53.377v59.236l1.532 9.481 54.995 9.183 8.364-2.486" stroke="#797D7B" stroke-width="3.447" stroke-miterlimit="10"/><path d="M24.467 105.777l15.494-1.667 2.5 2.709 10.255-1.354h46.451v16.357" stroke="#797D7B" stroke-width="3.447" stroke-miterlimit="10"/><path d="M102.527 66.724l-6.847 7.53 3.483 9.496v21.715M135.764 84.81v37.014M113.393 232.152h32.014l8.365 3.289 43.147-3.289 24.23 4.807 20.286 2.724 9.213 6.906-7.561 58.476M117.158 240.747h38.503" stroke="#797D7B" stroke-width="3.447" stroke-miterlimit="10"/><path d="M136.965 229.263l5.938-.878 10.047-4.182.55 2.262 2.173 8.826 1.042 29.871" stroke="#797D7B" stroke-width="3.447" stroke-miterlimit="10"/><path d="M152.944 224.203l53.03.833 29.201 4.227 34.723 17.324 10.88 9.838 61.097 1.593 3.304 22.459v25.406l2.143 29.29-3.557 3.274 1.414 67.362h7.575l5.031 6.073-7.754 7.531 2.932 2.083-2.932 4.198M345.173 171.385l3.647 20.48-9.63 24.9-14.213 2.798-9.645 3.363-9.63 7.07v9.376l-18.053-10.105-12.1-15.94-13.916-6.906-28.145-7.055-40.587-13.246-12.338-29.707h-43.609v-3.766l-5.135-6.846 2.56-4.034-3.825-6.28h-5.447l-2.501-13.663" stroke="#797D7B" stroke-width="3.447" stroke-miterlimit="10"/><path d="M132.304 188.495l16.133-7.203 47.21 17.562 21.909 5.06 23.605 8.558 7.71-1.577 12.77 5.878 10.358 7.442 15.658 5.06-9.154 11.49.239 13.485" stroke="#797D7B" stroke-width="3.447" stroke-miterlimit="10"/><path d="M257.836 234.734l17.279 9.942h15.658l15.657 12.443M297.542 265.155l-4.852 13.886 2.426 49.13-5.938 8.811M302.58 276.403v28.665" stroke="#797D7B" stroke-width="3.447" stroke-miterlimit="10"/><path d="M265.486 296.62l95.849.968 33.25-9.392h23.754M129.405 305.875l32.267 5.433 11.907 9.332L199 318.303l8.915 4.629 159.685-2.709 28.427-5.819h12.517l7.948 2.336 1.845 6.192 4.897 2.009v8.29l3.855 1.935 13.499 5.537 12.279 7.694 11.698 2.65 4.673 8.676 7.472 20.971 8.424 4.807-2.753 15.167-10.97 8.945-4.822 18.514-3.691 10.538" stroke="#797D7B" stroke-width="3.447" stroke-miterlimit="10"/><path d="M305.899 403.422l1.369-4.436-1.369-9.391 6.549-7.233 25.495-1.667v-38.012l-2.456-10.672v-58.03l-1.845-3.483-9.645-1.027-9.019 1.027-3.9-2.262h-7.382l-6.147-3.081H122.803" stroke="#797D7B" stroke-width="3.447" stroke-miterlimit="10"/><path d="M312.111 374.735l22.861-.759 7.635 1.265 9.645-.625 24.9-1.146 11.43 9.778-4.316 2.545-12.83 16.759-2.664 8.007-5.849 11.564-6.608 8.127" stroke="#797D7B" stroke-width="3.447" stroke-miterlimit="10"/><path d="M281.62 369.908h59.698l7.367 2.366 24.647-2.366 8.9 1.175 6.34 4.153 1.905 3.304h-3.81L385 380.177M249.276 339.179l-6.192-34.113h70.801M273.817 125.77v44.441l4.674 9.213-1.191 10.88-6.712 9.257-5.105 17.205-10.136 22.578M348.826 194.695l6.117 1.875 9.376-4.867 6.921-2.069 7.859-2.054 4.494-4.316 8.618-.714 5.432.714 1.682 3.185 25.838 10.121 19.854 25.272 8.99 7.427 12.16 18.976 5.432 12.487.938 15.672" stroke="#797D7B" stroke-width="3.447" stroke-miterlimit="10"/><path d="M273.818 137.212l12.22-.759 7.322-5.983h20.569l22.295-1.324 12.592 2.128 19.423 5.938v37.447l2.426 4.867 8.245 3.735.179 4.317M368.239 150.309l-94.421 3.007" stroke="#797D7B" stroke-width="3.447" stroke-miterlimit="10"/><path d="M46.475-9.21l6.058 22.399 59.92 64.147 30.258 9.69 35.111 39.336 4.226 19.378 19.974 17.548 3.632 29.662 12.115 5.448 21.179 6.042L268 251.055l73.837 55.068 35.11 46.615 29.663 18.158 35.095 55.068 21.194 12.711v23.605" stroke="#FDE293" stroke-width="7.414" stroke-miterlimit="10"/><path d="M-99.987 42.238l34.5 3.022 10.284 4.837L.476 54.339l12.115 8.468h6.043l3.631-7.263 9.69-3.021L46.48 58.58l14.526-1.816 15.732-4.241 6.057 5.447 22.995-.61 12.71-10.285" stroke="#FDE293" stroke-width="7.414" stroke-miterlimit="10"/><path d="M31.95.422l44.19 19.423 4.226 12.71 8.484-4.837 17.547 1.206 16.953 23.605 26.626 6.653 9.079 12.71 9.689 6.058 19.974 3.021 21.789 12.115 14.377 2.411 6.802 12.711v18.812M238.344 125.289v18.634h-12.711l-40.542 37.521-8.484 22.995-3.021 116.209 5.447 13.321-5.447 18.768" stroke="#FDE293" stroke-width="7.414" stroke-miterlimit="10"/><path d="M118.508 79.28v25.897l17.563 23.605 16.342 7.874v10.894l13.305 6.653 4.242 10.284 43.579 18.768 18.158-6.057 12.1-10.285 44.189 4.838 19.363 2.426 26.031-6.058 42.969 1.816 16.342 4.852 10.299-5.448h18.753l13.321-6.057 38.131-4.242 17.548 12.115 81.114-.61" stroke="#FDE293" stroke-width="7.414" stroke-miterlimit="10"/><path d="M-93.338 110.623l31.478 18.157h19.363l12.1 4.242 15.747-7.873 18.158.61 24.81-10.895 9.08 2.411 18.768-6.652 26.626 3.021 10.895 8.171H161.48l31.463-5.135 13.023 9.674 18.917 2.426 26.776-6.965 26.626 3.334 23.01 3.631 4.837 7.263 29.663-3.021 18.157 7.858h95.626l13.321-7.858 82.008-4.242" stroke="#FDE293" stroke-width="7.414" stroke-miterlimit="10"/><path d="M88.216 57.818v44.933l5.477 19.066-11.505 28.144 11.505 26.031 24.81 36.316 18.158 21.179-4.837 28.457 13.321 16.937 18.157 11.505 21.18 3.631 10.894 13.916h19.364l16.952 7.263 22.995 6.668 10.894 11.49 23.606 3.632 46.004 42.983 15.732 4.226h19.378l63.18 28.859" stroke="#FDE293" stroke-width="7.414" stroke-miterlimit="10"/><path d="M345.184 409.63l39.039-44.173V302.5l13.916-10.284h15.136l11.505-9.079 21.79 4.837 5.447-9.079 7.858 4.852 23.605-11.505h48.014l21.596-11.505M330.749-18.023l30.585 63.79-7.382 95.12-2.649 27.995" stroke="#FDE293" stroke-width="7.414" stroke-miterlimit="10"/><path d="M166.602 251.751c0 .268-.119.536-.164.819h17.86c0-.283-.089-.551-.148-.819h-17.548z" stroke="#797D7B" stroke-width="3.447" stroke-miterlimit="10"/><path d="M197.2 305.066c0 .268-.119.536-.163.818h17.86a7.354 7.354 0 0 0-.164-.818H197.2z" fill="#E8F0FE"/><path d="M175.374 78.552c-.065.27-.115.543-.149.819h17.861c0-.283-.105-.55-.164-.819h-17.548zM78.148 74.258c-.066.27-.115.543-.15.819H95.86a7.237 7.237 0 0 0-.149-.819H78.148z" stroke="#797D7B" stroke-width="3.447" stroke-miterlimit="10"/></g></svg>