<svg width="446" height="448" viewBox="0 0 446 448" fill="none" xmlns="http://www.w3.org/2000/svg"><mask id="a" style="mask-type:alpha" maskUnits="userSpaceOnUse" x="5" y="5" width="438" height="438"><path d="M437.44 224c0 117.879-95.561 213.44-213.44 213.44-117.879 0-213.44-95.561-213.44-213.44 0-117.879 95.561-213.44 213.44-213.44 117.879 0 213.44 95.561 213.44 213.44z" fill="#fff" stroke="#8AB4F8" stroke-width="11.121"/></mask><g mask="url(#a)"><mask id="b" style="mask-type:alpha" maskUnits="userSpaceOnUse" x="-1" y="0" width="449" height="449"><circle cx="223.5" cy="224.5" r="216.724" fill="#C4C4C4" stroke="#FEB787" stroke-width="14.448"/></mask><g mask="url(#b)"><path d="M934.964-310.005H-553.208V773.616H934.964V-310.005z" fill="#F1F3F4" stroke="#F1F3F4" stroke-width="3.612" stroke-miterlimit="10"/><path d="M74.353 404.063l-30.992.073-29.402 15.64-23.406 20.119-35.001 13.69-12.642 2.131-26.296 33.159-113.13 87.592 54 48.041 110.602-106.195 67.184-64.475 39.083-49.775z" fill="#CEEAD6"/><path d="M104.774-323.596l-680.261 880.947M289.17-329.622L-575.487 786.435M378.569-329.622L-512.6 796.224M484.719-346.967l-764.061 986.745-164.855 138.342M-176.001-329.622L962.74 573.829M630-329.622L227.688 238.809l-68.413 57.36L34.948 453.98l-178.112 170.418-217.193 171.826" stroke="#DADCE0" stroke-width="3.612" stroke-miterlimit="10"/><path d="M-566.64-132.198l133.646 54 664.91 515.406 107.531 44.718 194.185 157.847" stroke="#DADCE0" stroke-width="3.612" stroke-miterlimit="10"/><path d="M398.106-2.665l169.045 147.951-33.52 245.837v405.094M959.643 215.578l-270.978-60.502h-92.18l-182.59-179.34M254.231-338.01L642.564 40.535l68.449 23.731h83.8l189.959 40.527M-512.601-56.12l15.352 73.433L526.628 824.141M-604.821 111.084l924.726 685.137" stroke="#DADCE0" stroke-width="3.612" stroke-miterlimit="10"/><path d="M-586.648 228.4l443.49 395.991 200.47 178.798 178.797-199.748 134.08-275.167 72.639-211.414 96.514-176.956 80.188-56.529 28.644-206.971" stroke="#DADCE0" stroke-width="3.612" stroke-miterlimit="10"/><path d="M-597.809 370.18l318.476 269.605 195.558-150.948 650.931-818.459" stroke="#DADCE0" stroke-width="3.612" stroke-miterlimit="10"/><path d="M-432.994-329.622l101.969 197.436 521.908 401.842 170.273 77.154 172.476 149.106 85.895 29.33 164.133-18.782 212.317 145.891" stroke="#DADCE0" stroke-width="3.612" stroke-miterlimit="10"/><path d="M-349.197-329.622l282.175 228.536 261.189 226.838 43.309 99.259 152.248 28.788 150.768 86.835 89.507 43.38 329.638 230.631" stroke="#DADCE0" stroke-width="3.612" stroke-miterlimit="10"/><path d="M-113.114 818.574L69.368 610.592l148.6-184.18 57.901-118.259 52.303-65.992M-272.581 50.328l362.58-426.946" stroke="#DADCE0" stroke-width="3.612" stroke-miterlimit="10"/><path d="M27.037 349.478l152.285 124.833 92.396 56.06M89.994 480.092l59.382-70.977" stroke="#DADCE0" stroke-width="3.612" stroke-miterlimit="10"/><path d="M56.218 24.109a11.884 11.884 0 0 0-11.92 12.244c0 4.961 3.974 10.825 11.92 17.591 7.947-6.79 11.956-12.642 11.956-17.59a11.885 11.885 0 0 0-11.956-12.245z" fill="#F29900"/><path d="M410.06 29.275a11.886 11.886 0 0 0-11.92 12.245c0 4.96 3.974 10.824 11.92 17.59 7.947-6.79 11.92-12.654 11.92-17.59a11.87 11.87 0 0 0-3.363-8.65 11.883 11.883 0 0 0-8.557-3.595zM13.679 213.489a11.836 11.836 0 0 0-8.568 3.583 11.837 11.837 0 0 0-3.352 8.661c0 4.961 3.973 10.825 11.92 17.591 7.947-6.79 11.92-12.654 11.92-17.591a11.885 11.885 0 0 0-11.92-12.244z" fill="#669DF6"/><path d="M240.226 242.457c21.744 0 39.371-6.307 39.371-14.087 0-7.78-17.627-14.087-39.371-14.087-21.745 0-39.372 6.307-39.372 14.087 0 7.78 17.627 14.087 39.372 14.087z" fill="#fff" stroke="#669DF6" stroke-width="3.612" stroke-miterlimit="10"/><path d="M240.22 42.699a64.763 64.763 0 0 0-65.017 65.017c0 48.763 65.017 120.643 65.017 120.643s65.018-71.88 65.018-120.643a64.773 64.773 0 0 0-40.097-60.136 64.764 64.764 0 0 0-24.921-4.881z" fill="#669DF6"/><path d="M240.226 130.832c12.767 0 23.117-10.35 23.117-23.118 0-12.767-10.35-23.117-23.117-23.117-12.768 0-23.118 10.35-23.118 23.117 0 12.768 10.35 23.118 23.118 23.118z" fill="#fff"/><path d="M501.941 15.512h-576.31v419.643h576.31V15.512z" fill="#F1F3F4" stroke="#F1F3F4" stroke-width="3.612" stroke-miterlimit="10"/><path d="M168.662 292.043l-12.002.028-11.387 6.057-9.064 7.791-13.554 5.302-4.896.825-10.184 12.841-43.81 33.921 20.912 18.604 42.831-41.125 26.018-24.968 15.136-19.276zM281.058 60.64l-50.105-40.314 2.224-3.148-13.331-12.687-29.193 1.847-12.184 9.064-2.406 2.616 4.029 2.196 5.036-2.952 29.627 23.78-3.162 4.266 51.35 38.817 18.115-23.486zM262.956 84.123l23.304 15.33-14.072 17.765-21.668-16.995 12.436-16.1zM172.649 435.052l38.873-43.559 19.499-1.889 10.435 5.456 58.946 46.79-30.732 7.749-97.021-14.547z" fill="#CEEAD6"/><path d="M-79.575 126.175l68.08-72.459 35.446-43.46M-79.575 134.54l63.31-63.31 50.567-60.975" stroke="#FCC934" stroke-width="7.224" stroke-miterlimit="10"/><path d="M180.434 10.255L-83.004 351.411M251.843 7.905L-83.004 440.11M286.464 7.905L-58.65 443.9M327.579 1.2L31.689 383.327l-63.842 53.574M71.708 7.905l440.989 349.87M136.077 10.255L294.031 134.54M383.839 7.905L228.04 228.036l-26.494 22.213-48.147 61.114-68.975 65.996L.314 443.9" stroke="#DADCE0" stroke-width="3.612" stroke-miterlimit="10"/><path d="M-79.575 84.376l51.755 20.913 257.493 199.596 41.643 17.317 75.2 61.128M397.364 7.905l-11.358 76.46-2.169 223.221-8.658 147.127" stroke="#DADCE0" stroke-width="3.612" stroke-miterlimit="10"/><path d="M294.034 134.533l65.465 57.295-12.981 95.203v156.876" stroke="#DADCE0" stroke-width="3.612" stroke-miterlimit="10"/><path d="M516.897 225.33L407.09 201.019h-40.579l-7.022-9.19" stroke="#DADCE0" stroke-width="3.612" stroke-miterlimit="10"/><path d="M511.49 219.046l-104.939-23.43h-35.697l-70.71-69.451M238.315 4.671l150.386 146.596 26.508 9.19h32.452l73.563 15.694M-58.65 113.827l5.945 28.437L343.8 454.716M-94.362 178.589l358.109 265.326" stroke="#DADCE0" stroke-width="3.612" stroke-miterlimit="10"/><path d="M-87.321 224.021L84.424 377.373l77.634 69.241 69.241-77.354 51.924-106.562 28.13-81.872 37.376-68.528 31.054-21.89 11.093-80.153" stroke="#DADCE0" stroke-width="3.612" stroke-miterlimit="10"/><path d="M-91.653 278.911L31.68 383.318l75.732-58.457L359.491 7.905M84.68 449.852l-53-66.527M-91.653 331.699L.305 409.654l29.207 40.202" stroke="#DADCE0" stroke-width="3.612" stroke-miterlimit="10"/><path d="M-27.82 7.905l39.488 76.46 202.114 155.617 65.94 29.878 66.793 57.743 33.263 11.358 63.562-7.273 82.222 56.498" stroke="#DADCE0" stroke-width="3.612" stroke-miterlimit="10"/><path d="M4.631 7.905l109.275 88.503 101.148 87.845 16.772 38.439 58.96 11.149 58.386 33.627 34.663 16.8 127.655 89.314" stroke="#DADCE0" stroke-width="3.612" stroke-miterlimit="10"/><path d="M96.062 452.573l70.668-80.543 57.547-71.325 22.423-45.797 20.254-25.556M-17.86 169.997L122.568 4.671M-13.146 174.808L127.28 9.469M34.304 155.052l140.412-165.34M300.144 1.2l90.727 50.4h139.083" stroke="#DADCE0" stroke-width="3.612" stroke-miterlimit="10"/><path d="M463.565 4.671l5.26 159.563-27.571 136.873 1.567 41.838 7.847 103.666" stroke="#DADCE0" stroke-width="3.612" stroke-miterlimit="10"/><path d="M346.508 383.322l146.189-15.512h32.858l23.025 15.512M98.883 115.861L45.267 72.386M150.327 270.903l58.974 48.343 35.782 21.709M174.709 321.486L197.705 294" stroke="#DADCE0" stroke-width="3.612" stroke-miterlimit="10"/><path d="M142.567 429.228l58.876-57.561 23.989-42.649M104.507 395.283l-60.764 48.622M-4.554 375.567l21.99 19.724 46.118 57.281M104.504 156.455L43.74 243.838-78.446 401.974M15.369 224.018l28.368 19.821" stroke="#DADCE0" stroke-width="3.612" stroke-miterlimit="10"/><path d="M161.634 144.906a4.607 4.607 0 0 0-3.314 1.392 4.605 4.605 0 0 0-1.303 3.35c0 1.921 1.539 4.192 4.617 6.812 3.077-2.629 4.63-4.895 4.63-6.812a4.599 4.599 0 0 0-4.63-4.742zM395.487 241.977a4.587 4.587 0 0 0-4.616 4.728c0 1.916 1.538 4.196 4.616 6.812 3.077-2.616 4.63-4.896 4.63-6.812a4.61 4.61 0 0 0-1.313-3.346 4.613 4.613 0 0 0-1.518-1.029 4.609 4.609 0 0 0-1.799-.353zM419.797 277.67a4.592 4.592 0 0 0-3.317 1.382 4.596 4.596 0 0 0-1.313 3.346c0 1.916 1.539 4.196 4.63 6.812 3.078-2.616 4.616-4.896 4.616-6.812a4.595 4.595 0 0 0-1.303-3.345 4.586 4.586 0 0 0-3.313-1.383zM438.154 362.046a4.598 4.598 0 0 0-4.314 2.921 4.59 4.59 0 0 0-.316 1.806c0 1.931 1.552 4.197 4.63 6.827 3.077-2.63 4.616-4.896 4.616-6.827a4.584 4.584 0 0 0-1.303-3.345 4.578 4.578 0 0 0-3.313-1.382z" fill="#F29900"/><path d="M366.265 287.912a4.592 4.592 0 0 0-3.317 1.382 4.611 4.611 0 0 0-1.313 3.346c0 1.917 1.539 4.197 4.63 6.812 3.078-2.615 4.616-4.895 4.616-6.812a4.583 4.583 0 0 0-2.818-4.374 4.605 4.605 0 0 0-1.798-.354zM341.898 158.452a4.61 4.61 0 0 0-3.318 1.382 4.593 4.593 0 0 0-1.312 3.346c0 1.917 1.553 4.197 4.63 6.812 3.077-2.615 4.616-4.895 4.616-6.812a4.584 4.584 0 0 0-1.303-3.345 4.595 4.595 0 0 0-3.313-1.383zM298.667 146.896a4.599 4.599 0 0 0-4.617 4.741c0 1.922 1.539 4.192 4.617 6.813 3.077-2.63 4.616-4.901 4.616-6.813a4.612 4.612 0 0 0-1.303-3.35 4.599 4.599 0 0 0-3.313-1.391zM419.798 139.126a4.609 4.609 0 0 0-3.323 1.387 4.602 4.602 0 0 0-1.307 3.355c0 1.921 1.543 4.192 4.63 6.812 3.077-2.63 4.616-4.9 4.616-6.812a4.59 4.59 0 0 0-.311-1.807 4.592 4.592 0 0 0-2.507-2.576 4.606 4.606 0 0 0-1.798-.359zM145.154 218.241a4.595 4.595 0 0 0-4.616 4.742c0 1.921 1.538 4.192 4.616 6.812 3.077-2.629 4.616-4.9 4.616-6.812a4.59 4.59 0 0 0-1.303-3.35 4.606 4.606 0 0 0-3.313-1.392zM52.44 282.456a4.581 4.581 0 0 0-3.313 1.383 4.587 4.587 0 0 0-1.303 3.345c0 1.916 1.538 4.196 4.616 6.812 3.077-2.616 4.63-4.896 4.63-6.812a4.603 4.603 0 0 0-4.63-4.728z" fill="#669DF6"/><path d="M852.354-48.858H-303.478v841.626H852.354V-48.858z" fill="#333438" stroke="#333438" stroke-width="3.447" stroke-miterlimit="10"/><path d="M409.386 41.65l-100.49-80.853 4.461-6.312-26.736-25.445-58.549 3.703-24.435 18.18-4.826 5.245 8.08 4.405 10.099-5.92 59.419 47.693-6.34 8.556 102.987 77.85 36.33-47.102zM303.72 365.214l-100.49-80.852 4.46-6.312-26.735-25.446-58.549 3.704-24.436 18.179-4.825 5.246 8.08 4.404 10.099-5.919 59.419 47.692-6.34 8.557 102.987 77.85 36.33-47.103zM375.94 89l46.739 30.747-28.223 35.629L351 121.29 375.94 89z" fill="#98DCAB"/><path d="M207.559-59.42l-528.345 684.214M350.775-64.103l-671.561 866.818M420.206-64.103l-692.153 874.421M502.665-77.571l-593.43 766.384-128.039 107.447M-10.502-64.103l884.436 701.691M118.599-59.42l316.788 249.261M615.501-64.103L303.034 377.386l-53.135 44.55-96.562 122.569L15.002 676.864l-168.69 133.454" stroke="#797D7B" stroke-width="3.612" stroke-miterlimit="10"/><path d="M-313.919 89.256l103.8 41.941 516.422 400.305 83.517 34.731L540.639 688.83" stroke="#8E918F" stroke-width="3.612" stroke-miterlimit="10"/><path d="M435.385 189.847l131.293 114.91-26.034 190.937v314.628M323.643-70.612l301.611 294.008 53.162 18.431h65.086l147.537 31.477M-271.947 148.333l11.923 57.034 795.223 626.646M-343.567 278.198L374.649 810.33" stroke="#DADCE0" stroke-width="3.612" stroke-miterlimit="10"/><path d="M-329.448 369.304L15.001 676.862 170.702 815.73 309.57 660.591l104.137-213.717 56.417-164.201 74.961-137.438 62.28-43.904 22.247-160.75" stroke="#DADCE0" stroke-width="3.612" stroke-miterlimit="10"/><path d="M-338.129 479.419l247.354 209.396L61.11 571.577l505.565-635.68" stroke="#797D7B" stroke-width="3.612" stroke-miterlimit="10"/><path d="M-210.107-64.103l79.197 153.344 405.355 312.103 132.247 59.924 133.959 115.807 66.713 22.78 127.478-14.588 164.903 113.311" stroke="#797D7B" stroke-width="3.612" stroke-miterlimit="10"/><path d="M-145.024-64.103l219.16 177.499 202.859 176.18 33.637 77.093 118.248 22.359 117.099 67.443 69.518 33.692L871.519 669.29" stroke="#797D7B" stroke-width="3.612" stroke-miterlimit="10"/><path d="M38.336 827.697l141.73-161.536 115.415-143.048 44.971-91.849 40.622-51.255M-190.133 260.96L91.503-70.612M-180.686 270.616l281.636-331.6M-85.519 231.006L196.09-100.595" stroke="#DADCE0" stroke-width="3.612" stroke-miterlimit="10"/><path d="M44.008 152.398L-63.524 65.206M55.285 233.81L-66.582 409.064l-245.053 317.153" stroke="#797D7B" stroke-width="3.612" stroke-miterlimit="10"/><path d="M104.653 114.002a16.153 16.153 0 0 0-11.639 4.888 16.167 16.167 0 0 0-4.573 11.766c0 6.747 5.404 14.722 16.212 23.925 10.808-9.236 16.261-17.195 16.261-23.925a16.175 16.175 0 0 0-4.591-11.783 16.163 16.163 0 0 0-11.67-4.871zM46.485 216.81a16.153 16.153 0 0 0-11.639 4.889 16.163 16.163 0 0 0-4.573 11.765c0 6.747 5.404 14.722 16.212 23.925 10.808-9.236 16.261-17.194 16.261-23.925a16.16 16.16 0 0 0-9.93-15.407 16.166 16.166 0 0 0-6.331-1.247zM359.22 143a16.173 16.173 0 0 0-15.122 10.307 16.192 16.192 0 0 0-1.091 6.347c0 6.747 5.405 14.722 16.213 23.926 10.808-9.236 16.212-17.212 16.212-23.926a16.155 16.155 0 0 0-4.574-11.765A16.173 16.173 0 0 0 359.22 143z" fill="#F28B82"/><path d="M3.436 318.02a12.483 12.483 0 0 0-12.56 12.902c0 5.227 4.187 11.406 12.56 18.536 8.373-7.156 12.56-13.334 12.56-18.536a12.525 12.525 0 0 0-7.667-11.925 12.515 12.515 0 0 0-4.893-.977z" fill="#B3261E"/><path d="M65.35 285.093a16.112 16.112 0 0 0-16.212 16.654c0 6.747 5.404 14.722 16.212 23.925 10.809-9.236 16.213-17.211 16.213-23.925a16.162 16.162 0 0 0-16.213-16.654z" fill="#F28B82"/></g><path fill-rule="evenodd" clip-rule="evenodd" d="M187.312 206.82c0-23.059 18.65-41.708 41.709-41.708 23.058 0 41.708 18.649 41.708 41.708 0 31.281-41.708 77.458-41.708 77.458s-41.709-46.177-41.709-77.458zm26.813 0c0 8.223 6.673 14.896 14.896 14.896 8.222 0 14.895-6.673 14.895-14.896 0-8.222-6.673-14.896-14.895-14.896-8.223 0-14.896 6.674-14.896 14.896z" fill="#C4C7C5"/></g></svg>